<svg width="65" height="65" viewBox="0 0 65 65" fill="none" xmlns="http://www.w3.org/2000/svg">
<path d="M61.9531 52.8125H59.8955C60.5676 51.9387 60.9338 50.8681 60.9375 49.7656V21.3281C60.9359 19.9818 60.4004 18.6911 59.4484 17.7391C58.4964 16.7871 57.2057 16.2516 55.8594 16.25H48.75V7.10938C48.7484 5.76307 48.2129 4.47236 47.2609 3.52038C46.3089 2.5684 45.0182 2.03286 43.6719 2.03125H21.3281C19.9818 2.03286 18.6911 2.5684 17.7391 3.52038C16.7871 4.47236 16.2516 5.76307 16.25 7.10938V16.25H9.14062C7.79432 16.2516 6.50361 16.7871 5.55163 17.7391C4.59965 18.6911 4.06411 19.9818 4.0625 21.3281V49.7656C4.06623 50.8681 4.43238 51.9387 5.10453 52.8125H3.04688C2.77751 52.8125 2.51919 52.9195 2.32872 53.11C2.13825 53.3004 2.03125 53.5588 2.03125 53.8281V57.8906C2.03286 59.2369 2.5684 60.5276 3.52038 61.4796C4.47236 62.4316 5.76307 62.9671 7.10938 62.9688H57.8906C59.2369 62.9671 60.5276 62.4316 61.4796 61.4796C62.4316 60.5276 62.9671 59.2369 62.9688 57.8906V53.8281C62.9688 53.5588 62.8617 53.3004 62.6713 53.11C62.4808 52.9195 62.2225 52.8125 61.9531 52.8125ZM18.2812 7.10938C18.2812 6.30129 18.6023 5.52631 19.1737 4.95491C19.7451 4.38351 20.52 4.0625 21.3281 4.0625H43.6719C44.48 4.0625 45.2549 4.38351 45.8263 4.95491C46.3977 5.52631 46.7188 6.30129 46.7188 7.10938V18.2812C46.7188 19.0893 46.3977 19.8643 45.8263 20.4357C45.2549 21.0071 44.48 21.3281 43.6719 21.3281H30.4688C30.3223 21.3281 30.1776 21.3598 30.0445 21.421C29.9115 21.4822 29.7932 21.5714 29.6979 21.6826L25.3906 26.7109V22.3438C25.3906 22.0744 25.2836 21.8161 25.0932 21.6256C24.9027 21.4351 24.6444 21.3281 24.375 21.3281H21.3281C20.52 21.3281 19.7451 21.0071 19.1737 20.4357C18.6023 19.8643 18.2812 19.0893 18.2812 18.2812V7.10938ZM6.09375 49.7656V21.3281C6.09375 20.52 6.41476 19.7451 6.98616 19.1737C7.55756 18.6023 8.33254 18.2812 9.14062 18.2812H16.25C16.2516 19.6276 16.7871 20.9183 17.7391 21.8702C18.6911 22.8222 19.9818 23.3578 21.3281 23.3594H23.3594V29.4531C23.3594 29.6606 23.423 29.8631 23.5415 30.0334C23.6601 30.2036 23.8279 30.3335 24.0225 30.4055C24.2171 30.4775 24.429 30.4882 24.6299 30.4362C24.8307 30.3841 25.0108 30.2718 25.1459 30.1143L30.9359 23.3594H43.6719C45.0182 23.3578 46.3089 22.8222 47.2609 21.8702C48.2129 20.9183 48.7484 19.6276 48.75 18.2812H55.8594C56.6675 18.2812 57.4424 18.6023 58.0138 19.1737C58.5852 19.7451 58.9062 20.52 58.9062 21.3281V49.7656C58.9062 50.5737 58.5852 51.3487 58.0138 51.9201C57.4424 52.4915 56.6675 52.8125 55.8594 52.8125H9.14062C8.33254 52.8125 7.55756 52.4915 6.98616 51.9201C6.41476 51.3487 6.09375 50.5737 6.09375 49.7656ZM28.4375 54.8438H36.5625V55.8594C36.5625 56.1287 36.4555 56.3871 36.265 56.5775C36.0746 56.768 35.8162 56.875 35.5469 56.875H29.4531C29.1838 56.875 28.9254 56.768 28.735 56.5775C28.5445 56.3871 28.4375 56.1287 28.4375 55.8594V54.8438ZM60.9375 57.8906C60.9375 58.6987 60.6165 59.4737 60.0451 60.0451C59.4737 60.6165 58.6987 60.9375 57.8906 60.9375H7.10938C6.30129 60.9375 5.52631 60.6165 4.95491 60.0451C4.38351 59.4737 4.0625 58.6987 4.0625 57.8906V54.8438H26.4062V55.8594C26.4062 56.6675 26.7273 57.4424 27.2987 58.0138C27.8701 58.5852 28.645 58.9062 29.4531 58.9062H35.5469C36.355 58.9062 37.1299 58.5852 37.7013 58.0138C38.2727 57.4424 38.5938 56.6675 38.5938 55.8594V54.8438H60.9375V57.8906Z" fill="black"/>
<path d="M56.875 49.7656V21.3281C56.875 21.0588 56.768 20.8004 56.5775 20.61C56.3871 20.4195 56.1287 20.3125 55.8594 20.3125H50.7812C50.5119 20.3125 50.2536 20.4195 50.0631 20.61C49.8726 20.8004 49.7656 21.0588 49.7656 21.3281C49.7656 21.5975 49.8726 21.8558 50.0631 22.0463C50.2536 22.2367 50.5119 22.3438 50.7812 22.3438H54.8438V48.75H10.1562V22.3438H14.2188C14.4881 22.3438 14.7464 22.2367 14.9369 22.0463C15.1274 21.8558 15.2344 21.5975 15.2344 21.3281C15.2344 21.0588 15.1274 20.8004 14.9369 20.61C14.7464 20.4195 14.4881 20.3125 14.2188 20.3125H9.14062C8.87126 20.3125 8.61294 20.4195 8.42247 20.61C8.232 20.8004 8.125 21.0588 8.125 21.3281V49.7656C8.125 50.035 8.232 50.2933 8.42247 50.4838C8.61294 50.6742 8.87126 50.7812 9.14062 50.7812H55.8594C56.1287 50.7812 56.3871 50.6742 56.5775 50.4838C56.768 50.2933 56.875 50.035 56.875 49.7656Z" fill="black"/>
<path d="M14.2188 29.4531C14.2188 29.7225 14.3258 29.9808 14.5162 30.1713C14.7067 30.3617 14.965 30.4688 15.2344 30.4688H17.2656C17.535 30.4688 17.7933 30.3617 17.9838 30.1713C18.1742 29.9808 18.2812 29.7225 18.2812 29.4531C18.2812 29.1838 18.1742 28.9254 17.9838 28.735C17.7933 28.5445 17.535 28.4375 17.2656 28.4375H15.2344C14.965 28.4375 14.7067 28.5445 14.5162 28.735C14.3258 28.9254 14.2188 29.1838 14.2188 29.4531Z" fill="black"/>
<path d="M17.2656 32.5H15.2344C14.965 32.5 14.7067 32.607 14.5162 32.7975C14.3258 32.9879 14.2188 33.2463 14.2188 33.5156C14.2188 33.785 14.3258 34.0433 14.5162 34.2338C14.7067 34.4242 14.965 34.5312 15.2344 34.5312H17.2656C17.535 34.5312 17.7933 34.4242 17.9838 34.2338C18.1742 34.0433 18.2812 33.785 18.2812 33.5156C18.2812 33.2463 18.1742 32.9879 17.9838 32.7975C17.7933 32.607 17.535 32.5 17.2656 32.5Z" fill="black"/>
<path d="M17.2656 36.5625H15.2344C14.965 36.5625 14.7067 36.6695 14.5162 36.86C14.3258 37.0504 14.2188 37.3088 14.2188 37.5781C14.2188 37.8475 14.3258 38.1058 14.5162 38.2963C14.7067 38.4867 14.965 38.5938 15.2344 38.5938H17.2656C17.535 38.5938 17.7933 38.4867 17.9838 38.2963C18.1742 38.1058 18.2812 37.8475 18.2812 37.5781C18.2812 37.3088 18.1742 37.0504 17.9838 36.86C17.7933 36.6695 17.535 36.5625 17.2656 36.5625Z" fill="black"/>
<path d="M17.2656 40.625H15.2344C14.965 40.625 14.7067 40.732 14.5162 40.9225C14.3258 41.1129 14.2188 41.3713 14.2188 41.6406C14.2188 41.91 14.3258 42.1683 14.5162 42.3588C14.7067 42.5492 14.965 42.6562 15.2344 42.6562H17.2656C17.535 42.6562 17.7933 42.5492 17.9838 42.3588C18.1742 42.1683 18.2812 41.91 18.2812 41.6406C18.2812 41.3713 18.1742 41.1129 17.9838 40.9225C17.7933 40.732 17.535 40.625 17.2656 40.625Z" fill="black"/>
<path d="M17.2656 44.6875H15.2344C14.965 44.6875 14.7067 44.7945 14.5162 44.985C14.3258 45.1754 14.2188 45.4338 14.2188 45.7031C14.2188 45.9725 14.3258 46.2308 14.5162 46.4213C14.7067 46.6117 14.965 46.7188 15.2344 46.7188H17.2656C17.535 46.7188 17.7933 46.6117 17.9838 46.4213C18.1742 46.2308 18.2812 45.9725 18.2812 45.7031C18.2812 45.4338 18.1742 45.1754 17.9838 44.985C17.7933 44.7945 17.535 44.6875 17.2656 44.6875Z" fill="black"/>
<path d="M30.4688 30.4688H49.7656C50.035 30.4688 50.2933 30.3617 50.4838 30.1713C50.6742 29.9808 50.7812 29.7225 50.7812 29.4531C50.7812 29.1838 50.6742 28.9254 50.4838 28.735C50.2933 28.5445 50.035 28.4375 49.7656 28.4375H30.4688C30.1994 28.4375 29.9411 28.5445 29.7506 28.735C29.5601 28.9254 29.4531 29.1838 29.4531 29.4531C29.4531 29.7225 29.5601 29.9808 29.7506 30.1713C29.9411 30.3617 30.1994 30.4688 30.4688 30.4688Z" fill="black"/>
<path d="M29.4531 34.5312H45.7031C45.9725 34.5312 46.2308 34.4242 46.4213 34.2338C46.6117 34.0433 46.7188 33.785 46.7188 33.5156C46.7188 33.2463 46.6117 32.9879 46.4213 32.7975C46.2308 32.607 45.9725 32.5 45.7031 32.5H29.4531C29.1838 32.5 28.9254 32.607 28.735 32.7975C28.5445 32.9879 28.4375 33.2463 28.4375 33.5156C28.4375 33.785 28.5445 34.0433 28.735 34.2338C28.9254 34.4242 29.1838 34.5312 29.4531 34.5312Z" fill="black"/>
<path d="M21.3281 38.5938H33.5156C33.785 38.5938 34.0433 38.4867 34.2338 38.2963C34.4242 38.1058 34.5312 37.8475 34.5312 37.5781C34.5312 37.3088 34.4242 37.0504 34.2338 36.86C34.0433 36.6695 33.785 36.5625 33.5156 36.5625H21.3281C21.0588 36.5625 20.8004 36.6695 20.61 36.86C20.4195 37.0504 20.3125 37.3088 20.3125 37.5781C20.3125 37.8475 20.4195 38.1058 20.61 38.2963C20.8004 38.4867 21.0588 38.5938 21.3281 38.5938Z" fill="black"/>
<path d="M21.3281 42.6562H33.5156C33.785 42.6562 34.0433 42.5492 34.2338 42.3588C34.4242 42.1683 34.5312 41.91 34.5312 41.6406C34.5312 41.3713 34.4242 41.1129 34.2338 40.9225C34.0433 40.732 33.785 40.625 33.5156 40.625H21.3281C21.0588 40.625 20.8004 40.732 20.61 40.9225C20.4195 41.1129 20.3125 41.3713 20.3125 41.6406C20.3125 41.91 20.4195 42.1683 20.61 42.3588C20.8004 42.5492 21.0588 42.6562 21.3281 42.6562Z" fill="black"/>
<path d="M21.3281 46.7188H33.5156C33.785 46.7188 34.0433 46.6117 34.2338 46.4213C34.4242 46.2308 34.5312 45.9725 34.5312 45.7031C34.5312 45.4338 34.4242 45.1754 34.2338 44.985C34.0433 44.7945 33.785 44.6875 33.5156 44.6875H21.3281C21.0588 44.6875 20.8004 44.7945 20.61 44.985C20.4195 45.1754 20.3125 45.4338 20.3125 45.7031C20.3125 45.9725 20.4195 46.2308 20.61 46.4213C20.8004 46.6117 21.0588 46.7188 21.3281 46.7188Z" fill="black"/>
<path d="M20.765 13.0327L26.8587 17.0952C26.9697 17.1693 27.0942 17.2207 27.225 17.2466C27.3559 17.2725 27.4905 17.2724 27.6213 17.2463C27.7521 17.2202 27.8765 17.1686 27.9874 17.0944C28.0982 17.0202 28.1934 16.9249 28.2674 16.8139C28.3414 16.7029 28.3929 16.5785 28.4188 16.4476C28.4447 16.3168 28.4446 16.1821 28.4185 16.0513C28.3924 15.9205 28.3407 15.7961 28.2665 15.6853C28.1924 15.5744 28.0971 15.4793 27.9861 15.4052L23.3477 12.3137L27.8764 10.0549C28.1175 9.93451 28.3008 9.72327 28.3862 9.46767C28.4715 9.21206 28.4518 8.93303 28.3314 8.69195C28.211 8.45087 27.9998 8.2675 27.7441 8.18217C27.4885 8.09684 27.2095 8.11654 26.9684 8.23695L20.8747 11.2838C20.7154 11.3633 20.5798 11.4832 20.4815 11.6316C20.3832 11.78 20.3256 11.9516 20.3145 12.1292C20.3034 12.3069 20.3391 12.4843 20.4182 12.6438C20.4973 12.8032 20.6169 12.9391 20.765 13.0378V13.0327Z" fill="black"/>
<path d="M37.1246 10.0549L41.6532 12.3187L37.0149 15.4103C36.9039 15.4843 36.8086 15.5795 36.7344 15.6903C36.6602 15.8012 36.6086 15.9256 36.5825 16.0564C36.5563 16.1872 36.5562 16.3219 36.5822 16.4527C36.6081 16.5836 36.6595 16.708 36.7335 16.819C36.8076 16.9299 36.9027 17.0252 37.0136 17.0994C37.1244 17.1736 37.2488 17.2253 37.3796 17.2514C37.5104 17.2775 37.6451 17.2776 37.7759 17.2517C37.9068 17.2258 38.0313 17.1743 38.1422 17.1003L44.236 13.0378C44.3841 12.9391 44.5037 12.8032 44.5828 12.6438C44.6618 12.4843 44.6976 12.3069 44.6865 12.1292C44.6754 11.9516 44.6178 11.78 44.5195 11.6316C44.4211 11.4832 44.2855 11.3633 44.1263 11.2838L38.0325 8.23695C37.7915 8.11654 37.5124 8.09684 37.2568 8.18217C37.0012 8.2675 36.79 8.45087 36.6696 8.69195C36.5492 8.93303 36.5295 9.21206 36.6148 9.46767C36.7001 9.72327 36.8835 9.93451 37.1246 10.0549Z" fill="black"/>
<path d="M30.1215 19.2364C30.247 19.2819 30.3801 19.3022 30.5134 19.2961C30.6467 19.2901 30.7775 19.2579 30.8983 19.2013C31.0191 19.1447 31.1276 19.0649 31.2175 18.9663C31.3075 18.8678 31.3772 18.7525 31.4225 18.6271L35.485 7.45519C35.5364 7.32874 35.5617 7.19323 35.5595 7.05678C35.5573 6.92032 35.5276 6.78571 35.4722 6.66099C35.4168 6.53626 35.3368 6.42398 35.237 6.33085C35.1373 6.23772 35.0198 6.16565 34.8915 6.11894C34.7633 6.07224 34.627 6.05186 34.4907 6.05902C34.3544 6.06617 34.221 6.10073 34.0983 6.16061C33.9757 6.22049 33.8664 6.30448 33.7769 6.40755C33.6875 6.51062 33.6197 6.63066 33.5777 6.7605L29.5152 17.9324C29.4692 18.0578 29.4484 18.1911 29.454 18.3245C29.4596 18.458 29.4915 18.5891 29.5478 18.7102C29.6041 18.8313 29.6838 18.9402 29.7822 19.0305C29.8807 19.1208 29.996 19.1908 30.1215 19.2364Z" fill="black"/>
<path d="M21.3281 34.5312H25.3906C25.66 34.5312 25.9183 34.4242 26.1088 34.2338C26.2992 34.0433 26.4062 33.785 26.4062 33.5156C26.4062 33.2463 26.2992 32.9879 26.1088 32.7975C25.9183 32.607 25.66 32.5 25.3906 32.5H21.3281C21.0588 32.5 20.8004 32.607 20.61 32.7975C20.4195 32.9879 20.3125 33.2463 20.3125 33.5156C20.3125 33.785 20.4195 34.0433 20.61 34.2338C20.8004 34.4242 21.0588 34.5312 21.3281 34.5312Z" fill="black"/>
<path d="M46.7188 37.5781C46.7188 37.3088 46.6117 37.0504 46.4213 36.86C46.2308 36.6695 45.9725 36.5625 45.7031 36.5625H37.5781C37.3088 36.5625 37.0504 36.6695 36.86 36.86C36.6695 37.0504 36.5625 37.3088 36.5625 37.5781C36.5625 37.8475 36.6695 38.1058 36.86 38.2963C37.0504 38.4867 37.3088 38.5938 37.5781 38.5938H45.7031C45.9725 38.5938 46.2308 38.4867 46.4213 38.2963C46.6117 38.1058 46.7188 37.8475 46.7188 37.5781Z" fill="black"/>
<path d="M39.6094 40.625H37.5781C37.3088 40.625 37.0504 40.732 36.86 40.9225C36.6695 41.1129 36.5625 41.3713 36.5625 41.6406C36.5625 41.91 36.6695 42.1683 36.86 42.3588C37.0504 42.5492 37.3088 42.6562 37.5781 42.6562H39.6094C39.8787 42.6562 40.1371 42.5492 40.3275 42.3588C40.518 42.1683 40.625 41.91 40.625 41.6406C40.625 41.3713 40.518 41.1129 40.3275 40.9225C40.1371 40.732 39.8787 40.625 39.6094 40.625Z" fill="black"/>
<path d="M39.6094 44.6875H37.5781C37.3088 44.6875 37.0504 44.7945 36.86 44.985C36.6695 45.1754 36.5625 45.4338 36.5625 45.7031C36.5625 45.9725 36.6695 46.2308 36.86 46.4213C37.0504 46.6117 37.3088 46.7188 37.5781 46.7188H39.6094C39.8787 46.7188 40.1371 46.6117 40.3275 46.4213C40.518 46.2308 40.625 45.9725 40.625 45.7031C40.625 45.4338 40.518 45.1754 40.3275 44.985C40.1371 44.7945 39.8787 44.6875 39.6094 44.6875Z" fill="black"/>
</svg>
