<svg width="65" height="65" viewBox="0 0 65 65" fill="none" xmlns="http://www.w3.org/2000/svg">
<path d="M30.4688 57.8906H34.5312V61.9531H30.4688V57.8906Z" fill="#BDDBFF"/>
<path d="M49.5391 16.4922L49.0242 18.4574C50.2182 18.7692 51.2576 19.5056 51.9477 20.5286C52.6378 21.5517 52.9312 22.7912 52.773 24.0151C52.6149 25.2389 52.0159 26.3632 51.0884 27.1771C50.1609 27.9911 48.9684 28.439 47.7344 28.437V30.4682C49.4613 30.4687 51.1292 29.8401 52.4263 28.7C53.7234 27.5599 54.5608 25.9864 54.782 24.2738C55.0032 22.5611 54.5929 20.8265 53.628 19.3943C52.6631 17.9621 51.2095 16.9304 49.5391 16.4922Z" fill="black"/>
<path d="M12.1867 23.3591C12.193 22.0884 12.6737 20.8659 13.5346 19.9312C14.3954 18.9965 15.5744 18.417 16.8403 18.3064L16.6737 16.2822C14.8619 16.4548 13.1853 17.3155 11.9893 18.6873C10.7932 20.059 10.1687 21.8372 10.2445 23.6556C10.3202 25.4739 11.0905 27.194 12.3965 28.4615C13.7026 29.7289 15.445 30.4473 17.2648 30.4685V28.4372C15.9185 28.4356 14.6278 27.9001 13.6758 26.9481C12.7238 25.9961 12.1883 24.7054 12.1867 23.3591Z" fill="black"/>
<path d="M19.2969 28.4375H23.3594V30.4688H19.2969V28.4375Z" fill="black"/>
<path d="M33.5156 49.7656H35.5469V51.7969H33.5156V49.7656Z" fill="black"/>
<path d="M54.8438 49.7656H56.875V51.7969H54.8438V49.7656Z" fill="black"/>
<path d="M61.9531 40.625C62.2225 40.625 62.4808 40.518 62.6713 40.3276C62.8617 40.1371 62.9688 39.8788 62.9688 39.6094V23.3594C62.9688 23.0901 62.8617 22.8317 62.6713 22.6413C62.4808 22.4508 62.2225 22.3438 61.9531 22.3438H58.8555C58.6551 20.1487 57.8094 18.062 56.4249 16.3468C55.0405 14.6315 53.1792 13.3646 51.0758 12.7055C50.1524 10.5035 48.4027 8.75109 46.202 7.82449C44.0013 6.89788 41.5251 6.87087 39.3047 7.74926C38.0864 5.99276 36.4625 4.55591 34.5708 3.56052C32.679 2.56514 30.5751 2.04057 28.4375 2.03129C25.4415 2.02399 22.5329 3.03984 20.1928 4.91074C17.8528 6.78165 16.2217 9.39544 15.5695 12.3196C13.1111 12.7129 10.8525 13.9101 9.1471 15.724C7.44169 17.5378 6.38575 19.8658 6.14453 22.3438H3.04688C2.77751 22.3438 2.51919 22.4508 2.32872 22.6413C2.13825 22.8317 2.03125 23.0901 2.03125 23.3594V40.625C2.03125 40.8944 2.13825 41.1527 2.32872 41.3432C2.51919 41.5337 2.77751 41.6407 3.04688 41.6407H10.1562V49.7657C10.1562 49.4963 10.0492 49.238 9.85878 49.0475C9.66831 48.857 9.40999 48.75 9.14062 48.75H3.04688C2.77751 48.75 2.51919 48.857 2.32872 49.0475C2.13825 49.238 2.03125 49.4963 2.03125 49.7657V61.9532C2.03125 62.2225 2.13825 62.4809 2.32872 62.6713C2.51919 62.8618 2.77751 62.9688 3.04688 62.9688H17.2656C17.535 62.9688 17.7933 62.8618 17.9838 62.6713C18.1742 62.4809 18.2812 62.2225 18.2812 61.9532V54.8438C18.2812 54.5744 18.1742 54.3161 17.9838 54.1256C17.7933 53.9352 17.535 53.8282 17.2656 53.8282H16.25V51.7969C16.25 51.5276 16.143 51.2692 15.9525 51.0788C15.7621 50.8883 15.5037 50.7813 15.2344 50.7813H12.1875V40.625C12.1875 40.3557 12.0805 40.0973 11.89 39.9069C11.6996 39.7164 11.4412 39.6094 11.1719 39.6094H4.0625V24.375H6.14453C6.4003 27.1489 7.68211 29.7275 9.73906 31.606C11.796 33.4844 14.48 34.5276 17.2656 34.5313H31.4844V46.7188H26.4062C26.1369 46.7188 25.8786 46.8258 25.6881 47.0163C25.4976 47.2067 25.3906 47.4651 25.3906 47.7344V57.8907C25.3906 58.16 25.4976 58.4184 25.6881 58.6088C25.8786 58.7993 26.1369 58.9063 26.4062 58.9063H29.4531V60.9375H27.4219V62.9688H37.5781V60.9375H35.5469V58.9063H38.5938C38.8631 58.9063 39.1214 58.7993 39.3119 58.6088C39.5024 58.4184 39.6094 58.16 39.6094 57.8907V47.7344C39.6094 47.4651 39.5024 47.2067 39.3119 47.0163C39.1214 46.8258 38.8631 46.7188 38.5938 46.7188H33.5156V34.5313H47.7344C50.52 34.5276 53.204 33.4844 55.2609 31.606C57.3179 29.7275 58.5997 27.1489 58.8555 24.375H60.9375V38.5938H53.8281C53.5588 38.5938 53.3004 38.7008 53.11 38.8913C52.9195 39.0817 52.8125 39.3401 52.8125 39.6094V46.7188H49.7656C48.9583 46.7212 48.1847 47.043 47.6138 47.6139C47.0429 48.1847 46.7212 48.9583 46.7188 49.7657V57.0579C46.047 57.3016 45.4824 57.7736 45.1234 58.3915C44.7645 59.0094 44.6341 59.7337 44.7551 60.438C44.8761 61.1422 45.2408 61.7815 45.7854 62.2441C46.33 62.7067 47.0198 62.9632 47.7344 62.9688H59.9219C60.6364 62.9632 61.3263 62.7067 61.8708 62.2441C62.4154 61.7815 62.7801 61.1422 62.9011 60.438C63.0221 59.7337 62.8917 59.0094 62.5328 58.3915C62.1739 57.7736 61.6092 57.3016 60.9375 57.0579V49.7657C60.9351 48.9583 60.6133 48.1847 60.0424 47.6139C59.4715 47.043 58.698 46.7212 57.8906 46.7188H54.8438V40.625H61.9531ZM16.25 55.8594V60.9375H7.10938V55.8594H16.25ZM14.2188 52.8125V53.8282H6.09375C5.82439 53.8282 5.56606 53.9352 5.37559 54.1256C5.18513 54.3161 5.07812 54.5744 5.07812 54.8438V60.9375H4.0625V50.7813H8.125V51.7969C8.125 52.0663 8.232 52.3246 8.42247 52.5151C8.61294 52.7055 8.87126 52.8125 9.14062 52.8125H14.2188ZM33.5156 60.9375H31.4844V58.9063H33.5156V60.9375ZM37.5781 48.75V56.875H27.4219V48.75H37.5781ZM47.7344 32.5H17.2656C14.9245 32.4736 12.6828 31.5499 11.0027 29.9193C9.32258 28.2887 8.33223 26.0756 8.23585 23.7363C8.13946 21.397 8.94439 19.1099 10.4846 17.3466C12.0249 15.5834 14.183 14.4783 16.5141 14.2594C16.7397 14.2395 16.9523 14.1448 17.1179 13.9902C17.2836 13.8356 17.3927 13.6301 17.4281 13.4063C17.8 11.1448 18.8595 9.05284 20.4624 7.41487C22.0654 5.77691 24.134 4.6725 26.3869 4.25188C28.6398 3.83127 30.9676 4.11487 33.0536 5.06411C35.1396 6.01335 36.8825 7.58214 38.0453 9.55707C38.1772 9.78044 38.3896 9.94487 38.6389 10.0166C38.8882 10.0884 39.1555 10.0621 39.3859 9.94301C40.2871 9.47338 41.2787 9.20305 42.2936 9.15035C43.3084 9.09765 44.3227 9.26381 45.2677 9.63756C46.2126 10.0113 47.0662 10.5839 47.7704 11.3165C48.4746 12.0491 49.0131 12.9246 49.3492 13.8836C49.4046 14.0396 49.4974 14.1795 49.6197 14.2911C49.7419 14.4027 49.8897 14.4825 50.05 14.5235C52.1938 15.0913 54.0581 16.4191 55.2955 18.2596C56.5328 20.1001 57.0588 22.3277 56.7755 24.5272C56.4922 26.7268 55.4188 28.7484 53.7554 30.2152C52.092 31.682 49.9521 32.4941 47.7344 32.5ZM60.9375 59.9219C60.9375 60.1913 60.8305 60.4496 60.64 60.6401C60.4496 60.8305 60.1912 60.9375 59.9219 60.9375H47.7344C47.465 60.9375 47.2067 60.8305 47.0162 60.6401C46.8258 60.4496 46.7188 60.1913 46.7188 59.9219C46.7188 59.6526 46.8258 59.3942 47.0162 59.2038C47.2067 59.0133 47.465 58.9063 47.7344 58.9063H59.9219C60.1912 58.9063 60.4496 59.0133 60.64 59.2038C60.8305 59.3942 60.9375 59.6526 60.9375 59.9219ZM57.8906 48.75C58.16 48.75 58.4183 48.857 58.6088 49.0475C58.7992 49.238 58.9062 49.4963 58.9062 49.7657V56.875H48.75V49.7657C48.75 49.4963 48.857 49.238 49.0475 49.0475C49.2379 48.857 49.4963 48.75 49.7656 48.75H57.8906Z" fill="black"/>
<path d="M14.2188 39.6094H16.25V41.6406H14.2188V39.6094Z" fill="black"/>
<path d="M18.2812 39.6094H20.3125V41.6406H18.2812V39.6094Z" fill="black"/>
<path d="M22.3438 39.6094H24.375V41.6406H22.3438V39.6094Z" fill="black"/>
<path d="M26.4062 39.6094H28.4375V41.6406H26.4062V39.6094Z" fill="black"/>
<path d="M36.5625 39.6094H38.5938V41.6406H36.5625V39.6094Z" fill="black"/>
<path d="M40.625 39.6094H42.6562V41.6406H40.625V39.6094Z" fill="black"/>
<path d="M44.6875 39.6094H46.7188V41.6406H44.6875V39.6094Z" fill="black"/>
<path d="M48.75 39.6094H50.7812V41.6406H48.75V39.6094Z" fill="black"/>
</svg>
