<svg width="65" height="65" viewBox="0 0 65 65" fill="none" xmlns="http://www.w3.org/2000/svg">
<g clip-path="url(#clip0)">
<path d="M4.33327 56.3334H20.9974L19.9138 58.5H19.5002C16.1082 58.5 14.0834 60.1196 14.0834 62.8333C14.0834 64.0299 15.0534 64.9999 16.25 64.9999H48.75C49.9466 64.9999 50.9166 64.0299 50.9166 62.8333C50.9166 60.1196 48.8918 58.5 45.4998 58.5H45.0862L44.0026 56.3334H60.6667C63.06 56.3334 65 54.3934 65 52.0001V14.0833C65 11.69 63.06 9.75 60.6667 9.75H48.75C48.1519 9.75 47.6664 10.235 47.6664 10.8331C47.6664 11.4316 48.1519 11.9166 48.75 11.9166H60.6667C61.8634 11.9166 62.8334 12.8866 62.8334 14.0833V52.0001C62.8334 53.1967 61.8634 54.1667 60.6667 54.1667H4.33327C3.13663 54.1667 2.16663 53.1967 2.16663 52.0001V14.0833C2.16663 12.8866 3.13663 11.9166 4.33327 11.9166H16.25C16.8481 11.9166 17.3336 11.4316 17.3336 10.8331C17.3336 10.235 16.8481 9.75 16.25 9.75H4.33327C1.94 9.75 0 11.69 0 14.0833V52.0001C0 54.3934 1.94 56.3334 4.33327 56.3334ZM48.75 62.8333H16.25C16.25 62.2972 16.25 60.6666 19.5002 60.6666H45.4998C48.75 60.6666 48.75 62.2972 48.75 62.8333ZM41.5796 56.3334L42.6627 58.5H22.3363L23.4194 56.3334H41.5796Z" fill="black"/>
<path d="M57.4173 45.4994H7.58418C6.98562 45.4994 6.50062 45.0144 6.50062 44.4164V17.3332C6.50062 16.7346 6.98562 16.2496 7.58418 16.2496H10.8339C11.4324 16.2496 11.9174 15.7646 11.9174 15.1661C11.9174 14.568 11.4324 14.083 10.8339 14.083H7.58418C5.78899 14.083 4.33398 15.538 4.33398 17.3332V44.4164C4.33398 46.2111 5.78899 47.6661 7.58418 47.6661H57.4173C59.2124 47.6661 60.6674 46.2111 60.6674 44.4164V17.3332C60.6674 15.538 59.2124 14.083 57.4173 14.083H54.1675C53.569 14.083 53.084 14.568 53.084 15.1661C53.084 15.7646 53.569 16.2496 54.1675 16.2496H57.4173C58.0158 16.2496 58.5008 16.7346 58.5008 17.3332V44.4164C58.5008 45.0144 58.0158 45.4994 57.4173 45.4994Z" fill="black"/>
<path d="M27.0831 49.833C26.485 49.833 26 50.318 26 50.9161C26 51.5146 26.485 51.9996 27.0831 51.9996H37.9167C38.5148 51.9996 38.9998 51.5146 38.9998 50.9161C38.9998 50.318 38.5148 49.833 37.9167 49.833H27.0831Z" fill="black"/>
<path d="M46.4278 6.29757L44.6212 4.48948C43.8887 3.7595 42.7427 3.64891 41.8842 4.22516L39.1761 6.01341C38.3385 5.56263 37.4548 5.2021 36.5403 4.93877L35.9021 1.74511C35.7012 0.731468 34.8126 0.000991821 33.7791 0H31.2222C30.1897 0 29.3005 0.728493 29.0977 1.74114L28.4426 4.93034C27.5301 5.20061 26.6499 5.56709 25.8152 6.02432L23.118 4.22516C22.2586 3.6499 21.1125 3.76247 20.3816 4.49345L18.572 6.30154C17.8484 7.03449 17.7383 8.17509 18.3091 9.03301L20.0984 11.7412C19.6481 12.5793 19.2881 13.463 19.0238 14.3769L15.8301 15.0137C14.8179 15.217 14.088 16.1047 14.084 17.1372V19.6961C14.0865 20.7281 14.8145 21.6158 15.8261 21.8206L19.0143 22.4707C19.2851 23.3822 19.6516 24.2629 20.1073 25.0975L18.3091 27.8003C17.7369 28.6607 17.8499 29.8047 18.5789 30.5372L20.3855 32.3438C21.117 33.0753 22.2625 33.1873 23.122 32.6126L25.8306 30.8243C26.6682 31.2751 27.5519 31.6351 28.4664 31.899L29.1041 35.0926C29.307 36.1023 30.1922 36.8303 31.2222 36.8333H33.7791C34.8116 36.8333 35.7007 36.1048 35.9036 35.0926L36.5587 31.9029C37.4711 31.6331 38.3514 31.2662 39.186 30.8089L41.8832 32.6126C42.7432 33.1883 43.8897 33.0758 44.6212 32.3438L46.4293 30.5372C47.1573 29.8042 47.2693 28.6607 46.6975 27.8003L44.9078 25.0921C45.3566 24.258 45.7196 23.3807 45.9914 22.4737L44.9534 22.1652L45.9869 22.4563L49.1806 21.8196C50.1893 21.6123 50.9143 20.7256 50.9173 19.6961V17.1372C50.9148 16.1052 50.1868 15.2175 49.1751 15.0127L45.9869 14.3631C45.7161 13.4511 45.3497 12.5703 44.8939 11.7357L46.6975 9.03698C47.2743 8.17657 47.1612 7.02904 46.4278 6.29757ZM43.0913 10.5287C42.6499 11.1996 42.6142 12.0586 42.9981 12.7637C43.3764 13.4684 43.6824 14.2093 43.9105 14.976C44.1337 15.7511 44.769 16.3378 45.5589 16.4989L48.7506 17.1372V19.6961L45.5589 20.3343C44.769 20.4955 44.1337 21.0822 43.9105 21.8573C43.6819 22.6239 43.3764 23.3658 42.9981 24.0705C42.6127 24.7752 42.6489 25.6356 43.0923 26.3056L44.8959 29.0043L43.0878 30.8119L40.3896 29.0083C39.7191 28.5664 38.8592 28.5297 38.1535 28.9131C37.4488 29.292 36.7069 29.5979 35.9403 29.8265C35.1686 30.0527 34.5849 30.6865 34.4238 31.474L33.7791 34.6666H31.2222L30.5829 31.473C30.4198 30.6835 29.8331 30.0497 29.059 29.8251C28.2928 29.5974 27.5519 29.292 26.8477 28.9141C26.5259 28.7405 26.1659 28.6493 25.8004 28.6488C25.3759 28.6478 24.9613 28.7727 24.6087 29.0083L21.91 30.8119L20.1019 29.0043L21.9065 26.3046C22.3478 25.6336 22.3835 24.7747 21.9997 24.0695C21.6213 23.3648 21.3158 22.6239 21.0877 21.8573C20.8646 21.0822 20.2293 20.4955 19.4388 20.3343L16.2506 19.6961V17.1372L19.4423 16.4989C20.2323 16.3378 20.8675 15.7511 21.0907 14.976C21.3193 14.2093 21.6248 13.4679 22.0032 12.7628C22.3885 12.0581 22.3523 11.1977 21.909 10.5277L20.1053 7.82944L21.9134 6.02135L24.6117 7.82497C25.2816 8.26881 26.1425 8.30551 26.8477 7.92019C27.5524 7.54131 28.2943 7.23534 29.061 7.00722C29.8346 6.78257 30.4208 6.1483 30.5829 5.35931L31.2222 2.16663H33.7791L34.4183 5.3603C34.5815 6.14979 35.1681 6.78406 35.9422 7.00821C36.7084 7.23583 37.4493 7.54131 38.1535 7.9192C38.8587 8.30502 39.7191 8.26881 40.3896 7.82497L43.0878 6.02135L44.8959 7.82944L43.0913 10.5287Z" fill="black"/>
<path d="M32.5005 9.75C27.714 9.75 23.834 13.63 23.834 18.4165C23.834 23.2031 27.714 27.0831 32.5005 27.0831C37.287 27.0831 41.1671 23.2031 41.1671 18.4165C41.1616 13.6325 37.2846 9.75546 32.5005 9.75ZM32.5005 24.9164C28.9106 24.9164 26.0006 22.0064 26.0006 18.4165C26.0006 14.8266 28.9106 11.9166 32.5005 11.9166C36.0904 11.9166 39.0004 14.8266 39.0004 18.4165C38.9969 22.0049 36.0889 24.913 32.5005 24.9164Z" fill="black"/>
<path d="M33.5831 18.4161C33.5831 19.0146 33.0977 19.4996 32.4996 19.4996C31.9015 19.4996 31.416 19.0146 31.416 18.4161C31.416 17.818 31.9015 17.333 32.4996 17.333C33.0977 17.333 33.5831 17.818 33.5831 18.4161Z" fill="black"/>
</g>
<defs>
<clipPath id="clip0">
<path d="M0 0H65V65H0V0Z" fill="white"/>
</clipPath>
</defs>
</svg>
