<svg width="65" height="65" viewBox="0 0 65 65" fill="none" xmlns="http://www.w3.org/2000/svg">
<g clip-path="url(#clip0)">
<path d="M47.4053 7.22744C47.1692 6.99131 46.8417 6.85547 46.5078 6.85547C46.1725 6.85547 45.8464 6.99131 45.6103 7.22744C45.3729 7.46357 45.2383 7.79111 45.2383 8.125C45.2383 8.45889 45.3729 8.78643 45.6103 9.02256C45.8464 9.25869 46.1725 9.39453 46.5078 9.39453C46.8417 9.39453 47.1692 9.25869 47.4053 9.02256C47.6414 8.78643 47.7774 8.45889 47.7774 8.125C47.7774 7.79111 47.6415 7.46357 47.4053 7.22744Z" fill="black"/>
<path d="M44.2266 12.9492H36.1016C35.4005 12.9492 34.832 13.5176 34.832 14.2188V22.3438C34.832 23.0449 35.4005 23.6133 36.1016 23.6133H44.2266C44.9276 23.6133 45.4961 23.0449 45.4961 22.3438V14.2188C45.4961 13.5176 44.9276 12.9492 44.2266 12.9492ZM42.957 21.0742H37.3711V15.4883H42.957V21.0742Z" fill="black"/>
<path d="M44.2266 27.168H36.1016C35.4005 27.168 34.832 27.7363 34.832 28.4375V36.5625C34.832 37.2637 35.4005 37.832 36.1016 37.832H44.2266C44.9277 37.832 45.4961 37.2637 45.4961 36.5625V28.4375C45.4961 27.7363 44.9276 27.168 44.2266 27.168ZM42.957 35.293H37.3711V29.707H42.957V35.293Z" fill="black"/>
<path d="M40.1641 41.3867H36.1016C35.4005 41.3867 34.832 41.9551 34.832 42.6562V50.7812C34.832 51.4824 35.4005 52.0508 36.1016 52.0508C36.8026 52.0508 37.3711 51.4824 37.3711 50.7812V43.9258H40.1641C40.8651 43.9258 41.4336 43.3574 41.4336 42.6562C41.4336 41.9551 40.8651 41.3867 40.1641 41.3867Z" fill="black"/>
<path d="M30.0039 12.9492C29.3029 12.9492 28.7344 13.5176 28.7344 14.2188V21.0742H21.8789C21.1779 21.0742 20.6094 21.6426 20.6094 22.3438C20.6094 23.0449 21.1779 23.6133 21.8789 23.6133H30.0039C30.7049 23.6133 31.2734 23.0449 31.2734 22.3438V14.2188C31.2734 13.5176 30.7049 12.9492 30.0039 12.9492Z" fill="black"/>
<path d="M30.0039 27.168H21.8789C21.1779 27.168 20.6094 27.7363 20.6094 28.4375V36.5625C20.6094 37.2637 21.1779 37.832 21.8789 37.832H30.0039C30.7049 37.832 31.2734 37.2637 31.2734 36.5625V28.4375C31.2734 27.7363 30.7049 27.168 30.0039 27.168ZM28.7344 35.293H23.1484V29.707H28.7344V35.293Z" fill="black"/>
<path d="M30.0039 41.3867H21.8789C21.1779 41.3867 20.6094 41.9551 20.6094 42.6562V50.7812C20.6094 51.4824 21.1779 52.0508 21.8789 52.0508H30.0039C30.7049 52.0508 31.2734 51.4824 31.2734 50.7812V42.6562C31.2734 41.9551 30.7049 41.3867 30.0039 41.3867ZM28.7344 49.5117H23.1484V43.9258H28.7344V49.5117Z" fill="black"/>
<path d="M33.3644 59.5663C33.1282 59.3289 32.8007 59.1943 32.4668 59.1943C32.1329 59.1943 31.8055 59.3289 31.5694 59.5663C31.3332 59.8024 31.1973 60.1287 31.1973 60.4639C31.1973 60.7978 31.3331 61.124 31.5694 61.3614C31.8054 61.5976 32.1329 61.7334 32.4668 61.7334C32.8007 61.7334 33.1282 61.5976 33.3644 61.3614C33.6005 61.124 33.7363 60.7978 33.7363 60.4639C33.7363 60.1287 33.6006 59.8024 33.3644 59.5663Z" fill="black"/>
<path d="M49.7649 0H15.2351C13.1351 0 11.4265 1.70854 11.4265 3.80859V4.31476H3.80859C1.70853 4.31476 0 6.02329 0 8.12335V19.803C0 21.9031 1.70853 23.6116 3.80859 23.6116H15.4883C17.5883 23.6116 19.2969 21.9031 19.2969 19.803V9.39453H40.625C41.326 9.39453 41.8945 8.82616 41.8945 8.125C41.8945 7.42384 41.326 6.85547 40.625 6.85547H19.079C18.5555 5.37697 17.1439 4.31476 15.4883 4.31476H13.9656V3.80859C13.9656 3.10857 14.5351 2.53906 15.2351 2.53906H49.7649C50.4649 2.53906 51.0344 3.10857 51.0344 3.80859V32.5C51.0344 33.2012 51.6029 33.7695 52.3039 33.7695C53.005 33.7695 53.5734 33.2012 53.5734 32.5V3.80859C53.5734 1.70854 51.8649 0 49.7649 0ZM16.7578 19.803C16.7578 20.5031 16.1883 21.0726 15.4883 21.0726H3.80859C3.10857 21.0726 2.53906 20.5031 2.53906 19.803V19.3418C2.60952 19.2954 2.67643 19.241 2.73851 19.1789L6.76025 15.1572L9.57595 17.9729C10.0718 18.4686 10.8754 18.4686 11.3714 17.9729L16.7578 12.5865V19.803ZM15.4883 6.85382C16.1883 6.85382 16.7578 7.42333 16.7578 8.12335V8.99564L10.4736 15.2798L7.65794 12.4641C7.16206 11.9684 6.35845 11.9684 5.86244 12.4641L2.53906 15.7875V8.12335C2.53906 7.42333 3.10857 6.85382 3.80859 6.85382H15.4883Z" fill="black"/>
<path d="M61.1906 36.8164H47.4797C45.3797 36.8164 43.6711 38.5249 43.6711 40.625V54.3359C43.6711 56.436 45.3797 58.1445 47.4797 58.1445H51.0336V61.1914C51.0336 61.8914 50.4641 62.4609 49.7641 62.4609H15.2344C14.5344 62.4609 13.9648 61.8914 13.9648 61.1914V58.1445H40.7955C41.4965 58.1445 42.065 57.5762 42.065 56.875C42.065 56.1738 41.4965 55.6055 40.7955 55.6055H13.9648V28.4375C13.9648 27.7363 13.3963 27.168 12.6953 27.168C11.9943 27.168 11.4258 27.7363 11.4258 28.4375V61.1914C11.4258 63.2915 13.1343 65 15.2344 65H49.7641C51.8642 65 53.5727 63.2915 53.5727 61.1914V58.1445H61.1906C63.2907 58.1445 64.9992 56.436 64.9992 54.3359V40.625C64.9992 38.5249 63.2907 36.8164 61.1906 36.8164ZM62.4602 54.3359C62.4602 55.036 61.8907 55.6055 61.1906 55.6055H47.4797C46.7797 55.6055 46.2102 55.036 46.2102 54.3359V40.625C46.2102 39.925 46.7797 39.3555 47.4797 39.3555H61.1906C61.8907 39.3555 62.4602 39.925 62.4602 40.625V54.3359Z" fill="black"/>
<path d="M58.1523 12.9492C57.4513 12.9492 56.8828 13.5176 56.8828 14.2188V24.3302C56.8828 25.0313 57.4512 25.5997 58.1523 25.5997C58.8534 25.5997 59.4219 25.0313 59.4219 24.3302V14.2188C59.4219 13.5176 58.8534 12.9492 58.1523 12.9492Z" fill="black"/>
<path d="M59.0499 28.2645C58.8138 28.0284 58.4862 27.8926 58.1523 27.8926C57.8185 27.8926 57.4909 28.0284 57.2549 28.2645C57.0188 28.5007 56.8828 28.8282 56.8828 29.1621C56.8828 29.496 57.0187 29.8235 57.2549 30.0597C57.4909 30.2958 57.8185 30.4316 58.1523 30.4316C58.4862 30.4316 58.8138 30.2958 59.0499 30.0597C59.2873 29.8235 59.4219 29.496 59.4219 29.1621C59.4219 28.8282 59.2873 28.5007 59.0499 28.2645Z" fill="black"/>
<path d="M6.85547 29.3242C6.15443 29.3242 5.58594 29.8926 5.58594 30.5937V39.3365C5.58594 40.0377 6.15443 40.606 6.85547 40.606C7.5565 40.606 8.125 40.0377 8.125 39.3365V30.5937C8.125 29.8926 7.5565 29.3242 6.85547 29.3242Z" fill="black"/>
<path d="M58.2948 45.0906L53.8383 42.52C52.974 42.0216 51.9424 42.022 51.0787 42.5209C50.2149 43.02 49.6992 43.9134 49.6992 44.911V50.0503C49.6992 51.0476 50.2149 51.9411 51.0784 52.4402C51.5107 52.6899 51.985 52.8148 52.4593 52.8148C52.9327 52.8148 53.4061 52.6904 53.8376 52.4416L58.2942 49.8727C59.1593 49.374 59.6758 48.4801 59.676 47.4816C59.6761 46.4833 59.1596 45.5894 58.2948 45.0906ZM57.0262 47.6731L52.5696 50.242C52.4964 50.2841 52.422 50.284 52.3487 50.2418C52.2755 50.1994 52.2383 50.1351 52.2383 50.0504V44.9111C52.2383 44.8264 52.2755 44.762 52.3487 44.7196C52.3854 44.6984 52.4224 44.6879 52.4593 44.6879C52.4962 44.6879 52.5331 44.6984 52.5698 44.7196L57.0263 47.2902C57.0997 47.3325 57.1369 47.3969 57.1369 47.4816C57.1369 47.5662 57.0997 47.6307 57.0262 47.6731Z" fill="black"/>
</g>
<defs>
<clipPath id="clip0">
<path d="M0 0H65V65H0V0Z" fill="white"/>
</clipPath>
</defs>
</svg>
