<svg width="65" height="65" viewBox="0 0 65 65" fill="none" xmlns="http://www.w3.org/2000/svg">
<g clip-path="url(#clip0)">
<path d="M49.9684 49.833H47.8018V54.1663H28.3018V56.333H47.8018V59.583C47.8018 61.3778 46.3466 62.833 44.5518 62.833H20.7184C19.5573 62.8314 18.4846 62.2125 17.9017 61.208L16.0254 62.2913C16.9966 63.9645 18.784 64.996 20.7184 64.9997H44.5518C47.542 64.996 49.9647 62.5733 49.9684 59.583V49.833Z" fill="black"/>
<path d="M31.5527 58.5H33.7194V60.6667H31.5527V58.5Z" fill="black"/>
<path d="M38.0514 29.25V27.0833H34.7464C34.2063 20.1702 28.7146 14.6784 21.8014 14.1383V10.8333H19.6348V14.1383C18.9048 14.1944 18.1806 14.3076 17.4681 14.4764V8.66667H34.8014V6.5H17.4681V5.41667C17.4681 3.62187 18.9233 2.16667 20.7181 2.16667H44.5514C45.3428 2.16667 46.1071 2.45549 46.7006 2.97917L48.1342 1.35417C47.145 0.480835 45.8707 -0.000528536 44.5514 4.35502e-07H20.7181C17.7278 0.00370324 15.3051 2.42639 15.3014 5.41667V15.1667C10.4233 17.2101 7.09867 21.8105 6.68978 27.0833H3.38477V29.25H6.69242C7.20341 36.1764 12.7084 41.6851 19.6348 42.2003V45.5H21.8014V42.2003C28.7278 41.6851 34.2328 36.1764 34.7438 29.25H38.0514ZM19.6348 37.9167V40.0336C18.1235 39.8977 16.653 39.4729 15.3014 38.7831V36.8333C15.3014 33.842 17.7268 31.4167 20.7181 31.4167C23.7094 31.4167 26.1348 33.842 26.1348 36.8333V38.7831C24.7838 39.474 23.3127 39.8993 21.8014 40.0368V37.9167H19.6348ZM17.4681 26C17.4681 24.2052 18.9233 22.75 20.7181 22.75C22.5129 22.75 23.9681 24.2052 23.9681 26C23.9681 27.7948 22.5129 29.25 20.7181 29.25C18.9233 29.25 17.4681 27.7948 17.4681 26ZM28.6622 37.0502C28.5453 37.1581 28.4205 37.2449 28.3014 37.3448V36.8333C28.2988 34.0033 26.7203 31.4103 24.2077 30.108C25.948 28.6422 26.5865 26.2449 25.8063 24.1079C25.026 21.9703 22.9932 20.5484 20.7181 20.5484C18.443 20.5484 16.4102 21.9703 15.6299 24.1079C14.8497 26.2449 15.4882 28.6422 17.2285 30.108C14.7159 31.4103 13.1374 34.0033 13.1348 36.8333V37.3501C13.0147 37.2518 12.8899 37.1592 12.774 37.0555C10.5291 35.0422 9.12992 32.2535 8.85909 29.25H10.9681V27.0833H8.85645C9.38595 21.3641 13.9155 16.8345 19.6348 16.305V18.4167H21.8014V16.305C27.5207 16.8345 32.0503 21.3641 32.5798 27.0833H30.4681V29.25H32.5771C32.3063 32.2535 30.9071 35.0422 28.6622 37.0555V37.0502Z" fill="black"/>
<path d="M61.8854 19.4997C62.4837 19.4997 62.9688 19.0146 62.9688 18.4163V5.41634C62.9688 4.81807 62.4837 4.33301 61.8854 4.33301H38.0521C37.4538 4.33301 36.9688 4.81807 36.9688 5.41634V18.4163C36.9688 19.0146 37.4538 19.4997 38.0521 19.4997H61.8854ZM39.1354 6.49967H60.8021V17.333H39.1354V6.49967Z" fill="black"/>
<path d="M41.3027 8.66699H45.6361V10.8337H41.3027V8.66699Z" fill="black"/>
<path d="M47.8027 8.66699H58.6361V10.8337H47.8027V8.66699Z" fill="black"/>
<path d="M41.3027 13H58.6361V15.1667H41.3027V13Z" fill="black"/>
<path d="M61.6942 21.667C60.8553 21.6686 60.046 21.9764 59.4191 22.5334L49.9691 30.8647V21.667H47.8024V32.5003H48.1155L41.9525 37.9387C37.9429 38.1683 34.8071 41.4838 34.8024 45.5003V47.4115C34.8066 48.4864 34.1988 49.4708 33.235 49.9474C32.7849 50.1717 32.5484 50.6763 32.6638 51.1656C32.7791 51.6549 33.216 52.0009 33.7191 52.0003H41.3024C45.3189 51.9956 48.6345 48.8598 48.864 44.8502L64.2756 27.3846C65.1701 26.3701 65.3875 24.9255 64.8305 23.6924C64.274 22.4594 63.0468 21.667 61.6942 21.667ZM41.3024 49.8337H36.348C36.7569 49.092 36.9706 48.2584 36.9691 47.4115V45.5003C36.9728 42.6783 39.1394 40.3302 41.9525 40.1011L46.7016 44.8502C46.4731 47.6633 44.1245 49.8305 41.3024 49.8337ZM62.6506 25.9517L47.7537 42.8354L43.9673 39.05L60.8511 24.1521C61.3562 23.7088 62.1185 23.7337 62.594 24.2087C63.069 24.6842 63.0939 25.4465 62.6506 25.9517Z" fill="black"/>
<path d="M1.2181 59.583H25.0514C25.6497 59.583 26.1348 59.0979 26.1348 58.4997V49.833C26.1348 49.2347 25.6497 48.7497 25.0514 48.7497H17.4681V43.333H15.3014V48.7497H1.2181C0.619832 48.7497 0.134766 49.2347 0.134766 49.833V58.4997C0.134766 59.0979 0.619832 59.583 1.2181 59.583ZM2.30143 50.9163H23.9681V57.4163H2.30143V50.9163Z" fill="black"/>
<path d="M4.46875 53.083H9.88542V55.2497H4.46875V53.083Z" fill="black"/>
<path d="M12.0527 53.083H21.8027V55.2497H12.0527V53.083Z" fill="black"/>
<path d="M1.2181 15.1663H12.0514C12.6497 15.1663 13.1348 14.6813 13.1348 14.083V5.41634C13.1348 4.81807 12.6497 4.33301 12.0514 4.33301H1.2181C0.619832 4.33301 0.134766 4.81807 0.134766 5.41634V14.083C0.134766 14.6813 0.619832 15.1663 1.2181 15.1663ZM2.30143 6.49967H10.9681V12.9997H2.30143V6.49967Z" fill="black"/>
<path d="M4.46875 8.66699H8.80208V10.8337H4.46875V8.66699Z" fill="black"/>
</g>
<defs>
<clipPath id="clip0">
<path d="M0 0H65V65H0V0Z" fill="white"/>
</clipPath>
</defs>
</svg>
