<svg width="65" height="65" viewBox="0 0 65 65" fill="none" xmlns="http://www.w3.org/2000/svg">
<path d="M57.8906 40.625H7.10938C6.84001 40.625 6.58169 40.518 6.39122 40.3275C6.20075 40.1371 6.09375 39.8787 6.09375 39.6094V7.10938C6.09375 6.84001 6.20075 6.58169 6.39122 6.39122C6.58169 6.20075 6.84001 6.09375 7.10938 6.09375H57.8906C58.16 6.09375 58.4183 6.20075 58.6088 6.39122C58.7992 6.58169 58.9062 6.84001 58.9062 7.10938V39.6094C58.9062 39.8787 58.7992 40.1371 58.6088 40.3275C58.4183 40.518 58.16 40.625 57.8906 40.625ZM8.125 38.5938H56.875V8.125H8.125V38.5938Z" fill="black"/>
<path d="M57.8906 2.03125H7.10938C5.76307 2.03286 4.47236 2.5684 3.52038 3.52038C2.5684 4.47236 2.03286 5.76307 2.03125 7.10938V45.7031C2.03286 47.0494 2.5684 48.3401 3.52038 49.2921C4.47236 50.2441 5.76307 50.7796 7.10938 50.7812H24.375V54.8438H19.2969C17.9506 54.8454 16.6599 55.3809 15.7079 56.3329C14.7559 57.2849 14.2204 58.5756 14.2188 59.9219V61.9531C14.2188 62.2225 14.3258 62.4808 14.5162 62.6713C14.7067 62.8617 14.965 62.9688 15.2344 62.9688H49.7656C50.035 62.9688 50.2933 62.8617 50.4838 62.6713C50.6742 62.4808 50.7812 62.2225 50.7812 61.9531V59.9219C50.7796 58.5756 50.2441 57.2849 49.2921 56.3329C48.3401 55.3809 47.0494 54.8454 45.7031 54.8438H40.625V50.7812H57.8906C59.2369 50.7796 60.5276 50.2441 61.4796 49.2921C62.4316 48.3401 62.9671 47.0494 62.9688 45.7031V7.10938C62.9671 5.76307 62.4316 4.47236 61.4796 3.52038C60.5276 2.5684 59.2369 2.03286 57.8906 2.03125ZM48.75 59.9219V60.9375H16.25V59.9219C16.25 59.1138 16.571 58.3388 17.1424 57.7674C17.7138 57.196 18.4888 56.875 19.2969 56.875H45.7031C46.5112 56.875 47.2862 57.196 47.8576 57.7674C48.429 58.3388 48.75 59.1138 48.75 59.9219ZM38.5938 54.8438H26.4062V50.7812H38.5938V54.8438ZM60.9375 45.7031C60.9375 46.5112 60.6165 47.2862 60.0451 47.8576C59.4737 48.429 58.6987 48.75 57.8906 48.75H7.10938C6.30129 48.75 5.52631 48.429 4.95491 47.8576C4.38351 47.2862 4.0625 46.5112 4.0625 45.7031V7.10938C4.0625 6.30129 4.38351 5.52631 4.95491 4.95491C5.52631 4.38351 6.30129 4.0625 7.10938 4.0625H57.8906C58.6987 4.0625 59.4737 4.38351 60.0451 4.95491C60.6165 5.52631 60.9375 6.30129 60.9375 7.10938V45.7031Z" fill="black"/>
<path d="M32.5 41.6406C31.8974 41.6406 31.3083 41.8193 30.8073 42.1541C30.3062 42.4889 29.9157 42.9648 29.6851 43.5215C29.4544 44.0783 29.3941 44.6909 29.5117 45.2819C29.6292 45.873 29.9194 46.4159 30.3455 46.842C30.7717 47.2681 31.3146 47.5583 31.9056 47.6758C32.4966 47.7934 33.1093 47.7331 33.666 47.5024C34.2227 47.2718 34.6986 46.8813 35.0334 46.3803C35.3682 45.8792 35.5469 45.2901 35.5469 44.6875C35.5469 43.8794 35.2259 43.1044 34.6545 42.533C34.0831 41.9616 33.3081 41.6406 32.5 41.6406ZM32.5 45.7031C32.2991 45.7031 32.1028 45.6436 31.9358 45.532C31.7687 45.4204 31.6386 45.2617 31.5617 45.0762C31.4848 44.8906 31.4647 44.6864 31.5039 44.4894C31.5431 44.2923 31.6398 44.1114 31.7818 43.9693C31.9239 43.8273 32.1049 43.7306 32.3019 43.6914C32.4989 43.6522 32.7031 43.6723 32.8887 43.7492C33.0743 43.8261 33.2329 43.9562 33.3445 44.1233C33.4561 44.2903 33.5156 44.4866 33.5156 44.6875C33.5156 44.9569 33.4086 45.2152 33.2182 45.4057C33.0277 45.5961 32.7694 45.7031 32.5 45.7031Z" fill="black"/>
<path d="M53.8281 36.5625H49.7656C49.4963 36.5625 49.2379 36.4555 49.0475 36.265C48.857 36.0746 48.75 35.8162 48.75 35.5469V25.3906C48.75 25.1213 48.857 24.8629 49.0475 24.6725C49.2379 24.482 49.4963 24.375 49.7656 24.375H53.8281C54.0975 24.375 54.3558 24.482 54.5463 24.6725C54.7367 24.8629 54.8438 25.1213 54.8438 25.3906V35.5469C54.8438 35.8162 54.7367 36.0746 54.5463 36.265C54.3558 36.4555 54.0975 36.5625 53.8281 36.5625ZM50.7812 34.5312H52.8125V26.4062H50.7812V34.5312Z" fill="black"/>
<path d="M46.7188 36.5625H42.6562C42.3869 36.5625 42.1286 36.4555 41.9381 36.265C41.7476 36.0746 41.6406 35.8162 41.6406 35.5469V29.4531C41.6406 29.1838 41.7476 28.9254 41.9381 28.735C42.1286 28.5445 42.3869 28.4375 42.6562 28.4375H46.7188C46.9881 28.4375 47.2464 28.5445 47.4369 28.735C47.6274 28.9254 47.7344 29.1838 47.7344 29.4531V35.5469C47.7344 35.8162 47.6274 36.0746 47.4369 36.265C47.2464 36.4555 46.9881 36.5625 46.7188 36.5625ZM43.6719 34.5312H45.7031V30.4688H43.6719V34.5312Z" fill="black"/>
<path d="M39.6094 36.5625H35.5469C35.2775 36.5625 35.0192 36.4555 34.8287 36.265C34.6383 36.0746 34.5312 35.8162 34.5312 35.5469V31.4844C34.5312 31.215 34.6383 30.9567 34.8287 30.7662C35.0192 30.5758 35.2775 30.4688 35.5469 30.4688H39.6094C39.8787 30.4688 40.1371 30.5758 40.3275 30.7662C40.518 30.9567 40.625 31.215 40.625 31.4844V35.5469C40.625 35.8162 40.518 36.0746 40.3275 36.265C40.1371 36.4555 39.8787 36.5625 39.6094 36.5625ZM36.5625 34.5312H38.5938V32.5H36.5625V34.5312Z" fill="black"/>
<path d="M43.6719 10.1562C42.2658 10.1562 40.8913 10.5732 39.7221 11.3544C38.553 12.1356 37.6418 13.2459 37.1037 14.545C36.5656 15.8441 36.4248 17.2735 36.6991 18.6526C36.9734 20.0317 37.6505 21.2984 38.6448 22.2927C39.6391 23.287 40.9058 23.9641 42.2849 24.2384C43.664 24.5127 45.0934 24.3719 46.3925 23.8338C47.6916 23.2957 48.8019 22.3845 49.5831 21.2154C50.3643 20.0463 50.7812 18.6717 50.7812 17.2656C50.7791 15.3808 50.0294 13.5737 48.6966 12.2409C47.3638 10.9081 45.5567 10.1584 43.6719 10.1562ZM48.6484 16.25H44.6875V12.2891C45.6625 12.4901 46.5573 12.9723 47.2612 13.6763C47.9652 14.3802 48.4474 15.275 48.6484 16.25ZM42.6563 12.2891V16.8441L39.4398 20.0606C38.9803 19.3685 38.698 18.574 38.6176 17.7471C38.5373 16.9202 38.6615 16.0862 38.9792 15.3186C39.2969 14.551 39.7984 13.8732 40.4396 13.3449C41.0808 12.8166 41.842 12.454 42.6563 12.2891ZM43.6719 22.3437C42.6768 22.3435 41.7041 22.0492 40.8759 21.4977L44.0923 18.2812H48.6484C48.4127 19.4275 47.789 20.4574 46.8825 21.1974C45.976 21.9374 44.8421 22.3423 43.6719 22.3437Z" fill="black"/>
<path d="M33.5156 26.4062H11.1719C10.9025 26.4062 10.6442 26.2992 10.4537 26.1088C10.2633 25.9183 10.1562 25.66 10.1562 25.3906V11.1719C10.1562 10.9025 10.2633 10.6442 10.4537 10.4537C10.6442 10.2633 10.9025 10.1562 11.1719 10.1562C11.4412 10.1562 11.6996 10.2633 11.89 10.4537C12.0805 10.6442 12.1875 10.9025 12.1875 11.1719V24.375H33.5156C33.785 24.375 34.0433 24.482 34.2338 24.6725C34.4242 24.8629 34.5312 25.1213 34.5312 25.3906C34.5312 25.66 34.4242 25.9183 34.2338 26.1088C34.0433 26.2992 33.785 26.4062 33.5156 26.4062Z" fill="black"/>
<path d="M14.2179 23.3593C14.0341 23.3591 13.8538 23.3091 13.6962 23.2145C13.5386 23.12 13.4096 22.9844 13.323 22.8223C13.2364 22.6603 13.1954 22.4777 13.2043 22.2941C13.2133 22.1106 13.2719 21.9329 13.3739 21.78L17.4364 15.6862C17.5266 15.5513 17.6477 15.44 17.7898 15.3615C17.9318 15.283 18.0906 15.2398 18.2528 15.2353C18.415 15.2308 18.576 15.2653 18.7221 15.3358C18.8683 15.4063 18.9954 15.5108 19.0929 15.6405L21.8351 19.2968H23.7465L25.4964 15.7959C25.5808 15.6271 25.7105 15.4851 25.8711 15.3859C26.0316 15.2867 26.2167 15.2342 26.4054 15.2343H28.8774L31.6287 10.6487C31.7699 10.4231 31.9941 10.2619 32.2529 10.1999C32.5118 10.1378 32.7847 10.1799 33.0128 10.317C33.241 10.4541 33.4062 10.6753 33.4729 10.933C33.5396 11.1907 33.5025 11.4642 33.3695 11.6948L30.3227 16.773C30.2324 16.9232 30.1048 17.0475 29.9523 17.1338C29.7998 17.2201 29.6275 17.2655 29.4523 17.2655H27.033L25.2882 20.7664C25.2034 20.936 25.0729 21.0785 24.9114 21.1777C24.7498 21.277 24.5637 21.3291 24.3741 21.328H21.3273C21.1696 21.328 21.0141 21.2913 20.8731 21.2208C20.732 21.1503 20.6094 21.0479 20.5148 20.9218L18.3291 18.008L15.0629 22.9073C14.9701 23.0464 14.8444 23.1604 14.697 23.2392C14.5496 23.3181 14.3851 23.3593 14.2179 23.3593Z" fill="black"/>
<path d="M27.4219 30.4688H17.2656C16.9963 30.4688 16.7379 30.3617 16.5475 30.1713C16.357 29.9808 16.25 29.7225 16.25 29.4531C16.25 29.1838 16.357 28.9254 16.5475 28.735C16.7379 28.5445 16.9963 28.4375 17.2656 28.4375H27.4219C27.6912 28.4375 27.9496 28.5445 28.14 28.735C28.3305 28.9254 28.4375 29.1838 28.4375 29.4531C28.4375 29.7225 28.3305 29.9808 28.14 30.1713C27.9496 30.3617 27.6912 30.4688 27.4219 30.4688Z" fill="black"/>
<path d="M27.4219 33.5156H17.2656C16.9963 33.5156 16.7379 33.4086 16.5475 33.2182C16.357 33.0277 16.25 32.7694 16.25 32.5C16.25 32.2306 16.357 31.9723 16.5475 31.7818C16.7379 31.5914 16.9963 31.4844 17.2656 31.4844H27.4219C27.6912 31.4844 27.9496 31.5914 28.14 31.7818C28.3305 31.9723 28.4375 32.2306 28.4375 32.5C28.4375 32.7694 28.3305 33.0277 28.14 33.2182C27.9496 33.4086 27.6912 33.5156 27.4219 33.5156Z" fill="black"/>
<path d="M27.4219 36.5625H17.2656C16.9963 36.5625 16.7379 36.4555 16.5475 36.265C16.357 36.0746 16.25 35.8162 16.25 35.5469C16.25 35.2775 16.357 35.0192 16.5475 34.8287C16.7379 34.6383 16.9963 34.5312 17.2656 34.5312H27.4219C27.6912 34.5312 27.9496 34.6383 28.14 34.8287C28.3305 35.0192 28.4375 35.2775 28.4375 35.5469C28.4375 35.8162 28.3305 36.0746 28.14 36.265C27.9496 36.4555 27.6912 36.5625 27.4219 36.5625Z" fill="black"/>
<path d="M14.2188 30.4688H13.2031C12.9338 30.4688 12.6754 30.3617 12.485 30.1713C12.2945 29.9808 12.1875 29.7225 12.1875 29.4531C12.1875 29.1838 12.2945 28.9254 12.485 28.735C12.6754 28.5445 12.9338 28.4375 13.2031 28.4375H14.2188C14.4881 28.4375 14.7464 28.5445 14.9369 28.735C15.1274 28.9254 15.2344 29.1838 15.2344 29.4531C15.2344 29.7225 15.1274 29.9808 14.9369 30.1713C14.7464 30.3617 14.4881 30.4688 14.2188 30.4688Z" fill="black"/>
<path d="M14.2188 33.5156H13.2031C12.9338 33.5156 12.6754 33.4086 12.485 33.2182C12.2945 33.0277 12.1875 32.7694 12.1875 32.5C12.1875 32.2306 12.2945 31.9723 12.485 31.7818C12.6754 31.5914 12.9338 31.4844 13.2031 31.4844H14.2188C14.4881 31.4844 14.7464 31.5914 14.9369 31.7818C15.1274 31.9723 15.2344 32.2306 15.2344 32.5C15.2344 32.7694 15.1274 33.0277 14.9369 33.2182C14.7464 33.4086 14.4881 33.5156 14.2188 33.5156Z" fill="black"/>
<path d="M14.2188 36.5625H13.2031C12.9338 36.5625 12.6754 36.4555 12.485 36.265C12.2945 36.0746 12.1875 35.8162 12.1875 35.5469C12.1875 35.2775 12.2945 35.0192 12.485 34.8287C12.6754 34.6383 12.9338 34.5312 13.2031 34.5312H14.2188C14.4881 34.5312 14.7464 34.6383 14.9369 34.8287C15.1274 35.0192 15.2344 35.2775 15.2344 35.5469C15.2344 35.8162 15.1274 36.0746 14.9369 36.265C14.7464 36.4555 14.4881 36.5625 14.2188 36.5625Z" fill="black"/>
</svg>
